<svg xmlns="http://www.w3.org/2000/svg" version="1.1" xmlns:xlink="http://www.w3.org/1999/xlink" xmlns:svgjs="http://svgjs.dev/svgjs" width="1500" height="1500" viewBox="0 0 1500 1500"><rect width="1500" height="1500" fill="#000000"></rect><g transform="matrix(0.6666666666666666,0,0,0.6666666666666666,250.00007343750008,187.66666666666674)"><svg viewBox="0 0 320 360" data-background-color="#3d2200" preserveAspectRatio="xMidYMid meet" height="1687" width="1500" xmlns="http://www.w3.org/2000/svg" xmlns:xlink="http://www.w3.org/1999/xlink"><g id="tight-bounds" transform="matrix(1,0,0,1,0.000023499999997511622,0)"><svg viewBox="0 0 320 360" height="360" width="320"><g><svg></svg></g><g><svg viewBox="0 0 320 360" height="360" width="320"><g><path transform="translate(-74.99272,-51.79039) scale(4.65793,4.65793)" d="M20.6 59.9l0.8 1-0.4-1.3c-0.1-0.6-0.8 0.1-0.4 0.3M21.5 59.3c0.3 0.5 0.6 1 0.6 1.5 0 0.7 0.6 1 1.1 1.2-0.7-0.8-1.1-3-1.7-2.7M59.9 16.9c1.7 0 3.3-0.2 5.1 0.2 4.4 1.1 8.1 3.3 10.6 6.4l7 11.2c0.3 2.8 0.9 5.9 0.8 9.3 0.7 0 0.6-1 1.4-1.2-0.8 2-1.2 4.5-1.4 7.4-0.5-1.6 0-4 0.1-5.3-0.7 1.1-1.1 0.3-1.1-0.2 0.1-0.8-0.3-0.7-0.6-1-1.1-1-1.8-2.1-2.6-3.8 0.5-1.3 0.6-3.2-1-4.2-0.5-0.3-1.1-0.8-1.4-1.6-0.4-1.1-1.1-2.4-0.9-4.1 0.1-0.5-1.5 1.1-2.4 0.4-3.9-2.7-7.8-5.8-12.5-8.4-2.5 0-4.3-0.9-5.2-2-0.8-1-0.2-2.3 1-2.4 0.7 0 1.5-0.2 2.1 0.2 0.1-0.4 0.5-0.9 1-0.9M50 14.6l0.2 0.1c1 0.2 1.5 1.6 2.6 1.1 0 0.7 0.1 1.4-0.1 1.9-0.3 0.8-1.2 0.8-1.9 0.8-6.7-0.4-10.6 2.4-14.7 4.8-1.1 0.7-2.3 1.2-3.2 2.1-4.3 4-9 7.7-10.1 15.1l-0.9 8.2c-0.1 0.9-1.1 1.8-0.9 2.9l0.7 4.9c-0.7-0.7-1.1 0.2-0.9 0.6 0.1 0.3 0.5 1.3 1.1 0.4 0.8 1.5 1.6 4.4 2.7 5.7 3.4 4 7.8 7.6 11.4 11.2 0.9-0.2 1.6-0.2 1.8-0.8 0.3 0.6-0.3 1.2-0.8 1.3 1.6 1 3.4 1.9 5.8 2.1 3.1 0.2 6 0.7 8.7 1.4 1.4-0.4 2.8-0.6 4.3-0.7 0.5 0 0.8-0.8 1.4-1l0.1-1c0.6 0.9 0.5-0.3 0.1-0.9 0.7 0.6 0.9 1.1 1.2 1.5 0-0.3 0.8-1.4 0.8-0.1l0.2-1.3c0.3-0.2 0.4 1.1 0.7 0.2 0.3-0.9 0.9-0.2 1.5-0.5-0.2 0.4-0.1 1.2 0.6 0.7l0.8-0.7c0.5 1.2 1.3 0.7 1.7 0.5 4.4-2.8 8.8-6.1 13-9.4l-0.1 1.3 0.5-1.6c0.5 0.5 0.9 0.1 1.1-0.2 0.6-1 1.4-2 2.7-2.9-1.6 4.3-3.5 7.7-5.9 10.5l-1 1.2c0 0.7-0.2 1.6-1 1.7-0.4 0.1-1.2-0.2-1.8 0.4-0.3 0.4 0.7 1.2-0.1 0.6-0.7-0.5-1.4 0-2.2 0.2-0.6 0.2 0.4 0.8 0.6 1.2 0.2 0.4 0.4 0.8 0.3 1.3l-1.1-1.2c-1.3 0.7-2.1 2-3.2 3-0.5 0.4-0.3 1.1-0.3 1.7-0.7 0-1.5-0.2-1.9 0.2-0.3 0.4-0.2 1-0.2 1.6-1-0.1-1.1-1.6-2-1.3-0.9 0.2-1.9 0.3-2.7 0.8 0.6 1.2-1 0.5-0.8 0.7-1.5-0.9-2.8-1.6-4.4-1-3.4-1.1-7.6-0.6-10.7-0.2 0-0.5 0.1-1-0.1-1.1-0.2 0.5-0.8 0.3-0.7 0.3-1.9-1.3-3.8-2.1-5.8-3.2-1.8 0.2-3.5-0.7-4-1.2-1.4-1.3-3-0.6-4.3-0.9-2.8-0.7-3.8-3.6-4.1-5.6-0.2-1-1-1.4-1.3-1.3-1.3-4.2-3.3-8-4.9-11.9-0.4-1-0.3-2-0.3-3.1 0.5 0.2 1 0.1 0.9-0.6-0.5-3.3-1.7-5.8-3-8.2 0.7-3.4 0.8-7.4 2.4-10.4 1.4-2.7 4-4.1 5.8-6.4 0.6-0.8 0.6-1.9 1.2-2.6 2-2 4-4.1 6.2-5.9 1-0.8 2.2 0 3.7-0.3 0.5-1.8 2.5-3.4 4.4-2.9 0.8 0.2 2.4-1.9 2.9-2.1 0.8-0.3 0.4 0.8 0.4 1.5 1.9-1.5 4.5-2.3 6.9-3.2" fill="#ffffff" fill-rule="nonzero" stroke="none" stroke-width="1" stroke-linecap="butt" stroke-linejoin="miter" stroke-miterlimit="10" stroke-dasharray="" stroke-dashoffset="0" font-family="none" font-weight="none" font-size="none" text-anchor="none" style="mix-blend-mode: normal" data-fill-palette-color="tertiary"></path></g><g transform="matrix(1,0,0,1,64,128.42769020520316)"><svg viewBox="0 0 192 103.14461958959367" height="103.14461958959367" width="192"><g><svg viewBox="0 0 192 103.14461958959367" height="103.14461958959367" width="192"><g><svg viewBox="0 0 192.00000000000003 103.14461958959369" height="103.14461958959367" width="192"><g transform="matrix(1,0,0,1,0,62.342514941829876)"><svg viewBox="0 0 192.00000000000003 40.80210464776381" height="40.80210464776381" width="192.00000000000003"><g id="textblocktransform"><svg viewBox="0 0 192.00000000000003 40.80210464776381" height="40.80210464776381" width="192.00000000000003" id="textblock"><g><svg viewBox="0 0 192.00000000000003 40.80210464776381" height="40.80210464776381" width="192.00000000000003"><g transform="matrix(1,0,0,1,0,0)"><svg width="192.00000000000003" viewBox="3.64 -35.01 167.03 35.5" height="40.80210464776381" data-palette-color="#f8fddd"><path d="M38.62-20.36L38.62-14.65Q38.62-11.45 37.51-8.76 36.4-6.08 34.45-4.14 32.5-2.2 29.81-1.1 27.12 0 23.97 0L23.97 0 6.84 0Q6.15 0 5.57-0.24 4.98-0.49 4.55-0.92 4.13-1.34 3.88-1.93 3.64-2.51 3.64-3.2L3.64-3.2 3.64-31.81Q3.64-32.47 3.88-33.06 4.13-33.64 4.55-34.08 4.98-34.52 5.57-34.77 6.15-35.01 6.84-35.01L6.84-35.01 23.97-35.01Q27.12-35.01 29.81-33.91 32.5-32.81 34.45-30.87 36.4-28.93 37.51-26.23 38.62-23.54 38.62-20.36L38.62-20.36ZM32.28-14.65L32.28-20.36Q32.28-22.22 31.68-23.75 31.08-25.29 29.98-26.38 28.88-27.47 27.36-28.06 25.83-28.66 23.97-28.66L23.97-28.66 9.99-28.66 9.99-6.35 23.97-6.35Q25.83-6.35 27.36-6.95 28.88-7.54 29.98-8.63 31.08-9.72 31.68-11.24 32.28-12.77 32.28-14.65L32.28-14.65ZM71.99-35.01L79.07-35.01 62.5-1.25Q62.11-0.46 61.34 0.01 60.57 0.49 59.64 0.49L59.64 0.49Q58.74 0.49 57.97 0.01 57.2-0.46 56.78-1.25L56.78-1.25 40.23-35.01 47.34-35.01 59.64-9.79 71.99-35.01ZM108.93-17.5L108.93-8.91Q108.93-7.28 108.52-5.97 108.1-4.66 107.42-3.67 106.73-2.69 105.83-1.99 104.93-1.29 103.94-0.85 102.95-0.42 101.94-0.21 100.92 0 100.02 0L100.02 0 88.57 0Q87.25 0 85.69-0.46 84.13-0.93 82.8-1.99 81.46-3.05 80.57-4.75 79.68-6.45 79.68-8.91L79.68-8.91 79.68-17.5Q79.68-19.95 80.57-21.64 81.46-23.34 82.8-24.4 84.13-25.46 85.69-25.93 87.25-26.39 88.57-26.39L88.57-26.39 100.02-26.39Q102.46-26.39 104.17-25.51 105.88-24.63 106.93-23.3 107.98-21.97 108.45-20.41 108.93-18.85 108.93-17.5L108.93-17.5ZM102.58-8.91L102.58-17.46Q102.58-18.77 101.92-19.41 101.26-20.04 100.02-20.04L100.02-20.04 88.62-20.04Q87.35-20.04 86.69-19.4 86.03-18.75 86.03-17.5L86.03-17.5 86.03-8.91Q86.03-7.67 86.69-7.01 87.35-6.35 88.62-6.35L88.62-6.35 100.02-6.35Q101.31-6.35 101.95-7.01 102.58-7.67 102.58-8.91L102.58-8.91ZM138.2-26.39L138.2-20.04 127.12-20.04 127.12 0 120.7 0 120.7-20.04 112.44-20.04 112.44-26.39 120.7-26.39 120.7-35.01 127.12-35.01 127.12-26.39 138.2-26.39ZM170.67-17.65L170.67-17.65Q170.67-16.33 170.2-14.81 169.74-13.28 168.7-11.98 167.67-10.67 165.99-9.79 164.32-8.91 161.93-8.91L161.93-8.91 150.48-8.91 150.48-14.94 161.93-14.94Q163.22-14.94 163.93-15.73 164.64-16.53 164.64-17.7L164.64-17.7Q164.64-18.95 163.84-19.65 163.05-20.36 161.93-20.36L161.93-20.36 150.48-20.36Q149.18-20.36 148.48-19.57 147.77-18.77 147.77-17.6L147.77-17.6 147.77-8.74Q147.77-7.47 148.56-6.76 149.36-6.05 150.53-6.05L150.53-6.05 161.93-6.05 161.93 0 150.48 0Q149.16 0 147.63-0.46 146.11-0.93 144.8-1.97 143.5-3 142.62-4.68 141.74-6.35 141.74-8.74L141.74-8.74 141.74-17.65Q141.74-18.97 142.2-20.5 142.67-22.02 143.7-23.33 144.74-24.63 146.41-25.51 148.09-26.39 150.48-26.39L150.48-26.39 161.93-26.39Q163.25-26.39 164.77-25.93 166.3-25.46 167.6-24.43 168.91-23.39 169.79-21.72 170.67-20.04 170.67-17.65Z" opacity="1" transform="matrix(1,0,0,1,0,0)" fill="#ffffff" class="wordmark-text-0" data-fill-palette-color="primary" id="text-0"></path></svg></g></svg></g></svg></g></svg></g><g transform="matrix(1,0,0,1,70.03214273034266,0)"><svg viewBox="0 0 51.935714539314716 56.38850862320959" height="56.38850862320959" width="51.935714539314716"><g><svg xmlns="http://www.w3.org/2000/svg" xml:space="preserve" viewBox="-342.478 256.122 91.99100000000001 99.87799999999999" x="0" y="0" height="56.38850862320959" width="51.935714539314716" class="icon-icon-0" data-fill-palette-color="accent" id="icon-0"><circle cx="-332.243" cy="261.297" r="5.2" fill="#ffffff" data-fill-palette-color="accent"></circle><path d="M-322.004 280.889v-6.924c0-2.98-1.753-5.9-5.242-5.9l-10.061-0.005c-3.178 0-5.171 2.589-5.171 5.823v7.007h20.474z" fill="#ffffff" data-fill-palette-color="accent"></path><circle cx="-308.404" cy="261.297" r="5.2" fill="#ffffff" data-fill-palette-color="accent"></circle><path d="M-298.165 280.889v-6.924c0-2.98-1.753-5.9-5.241-5.9l-10.061-0.005c-3.179 0-5.171 2.589-5.171 5.823v7.007h20.473z" fill="#ffffff" data-fill-palette-color="accent"></path><circle cx="-284.564" cy="261.297" r="5.2" fill="#ffffff" data-fill-palette-color="accent"></circle><path d="M-274.326 280.889v-6.924c0-2.98-1.753-5.9-5.241-5.9l-10.06-0.005c-3.179 0-5.173 2.589-5.173 5.823v7.007h20.474z" fill="#ffffff" data-fill-palette-color="accent"></path><circle cx="-260.726" cy="261.297" r="5.2" fill="#ffffff" data-fill-palette-color="accent"></circle><path d="M-250.487 280.889v-6.924c0-2.98-1.752-5.9-5.24-5.9l-10.061-0.005c-3.179 0-5.173 2.589-5.173 5.823v7.007h20.474zM-264.699 307.397v10.125c0 0.65 2.496 0.65 2.496 0v-5.882c0-4.026 5.974-4.026 5.974 0V356h-27.762v-8.505s-12.47-7.699-12.47-12.314v-23.326c0-4.673 6.569-4.89 6.569 0v13.443c0 0.706 2.264 0.64 2.264-0.066v-35.729c0-4.02 6.027-4.02 6.027 0v28.02c0 0.65 2.44 0.65 2.44 0v-13.81c0-4.026 6.026-4.026 6.026 0v13.81c0 0.65 2.408 0.65 2.408 0v-10.125c0-4.028 6.028-4.028 6.028-0.001" fill="#ffffff" data-fill-palette-color="accent"></path></svg></g></svg></g><g></g></svg></g></svg></g></svg></g></svg></g><defs></defs></svg><rect width="320" height="360" fill="none" stroke="none" visibility="hidden"></rect></g></svg></g></svg>